<svg
    width="30px"
    height="12px"
    viewBox="0 0 30 12"
    xmlns="http://www.w3.org/2000/svg"
    version="1.1"
>
    <path
         d="M-139 -160 C-142.314 -160 -145 -157.314 -145 -154 L-145 -6 C-145 -2.686 -142.314 0 -139 0 L0.323 0 C0.382 0.003 0.449 0.006 0.524 0.01 3.33 0.135 5.619 3.198 7.851 6.183 10.015 9.078 12.124 11.9 14.6 11.9 17.025 11.9 19.217 9.132 21.485 6.266 23.917 3.194 26.438 0.01 29.43 0.01 30.139 0.01 30.156 0.006 29.651 0 L169 0 C172.314 0 175 -2.686 175 -6 L175 -154 C175 -157.314 172.314 -160 169 -160 L-139 -160 Z"
         fill="#ffffff"
         fill-opacity="1"
         stroke="none"
    />
</svg>
