<svg width="40" height="40" viewBox="0 0 40 40" fill="none" xmlns="http://www.w3.org/2000/svg">
<mask id="mask0" mask-type="alpha" maskUnits="userSpaceOnUse" x="0" y="0" width="40" height="40">
<circle cx="20" cy="20" r="20" fill="#2B343D"/>
</mask>
<g mask="url(#mask0)">
<circle cx="20" cy="20" r="20" fill="#20272E"/>
<path d="M20.5 9C18.673 9 16.9207 9.72579 15.6288 11.0177C14.3369 12.3096 13.6111 14.0618 13.6111 15.8889C13.6111 17.7159 14.3369 19.4682 15.6288 20.7601C16.9207 22.052 18.673 22.7778 20.5 22.7778C22.327 22.7778 24.0793 22.052 25.3712 20.7601C26.6631 19.4682 27.3889 17.7159 27.3889 15.8889C27.3889 14.0618 26.6631 12.3096 25.3712 11.0177C24.0793 9.72579 22.327 9 20.5 9ZM20.5 27.9444C15.3264 27.9444 5 30.5416 5 35.6944V40H36V35.6944C36 30.5416 25.6736 27.9444 20.5 27.9444Z" fill="#798796"/>
</g>
</svg>
