<?xml version="1.0" encoding="UTF-8"?>
<svg width="189px" height="32px" viewBox="0 0 189 32" version="1.1" xmlns="http://www.w3.org/2000/svg" xmlns:xlink="http://www.w3.org/1999/xlink">
    <!-- Generator: sketchtool 53.2 (72643) - https://sketchapp.com -->
    <title>0E736350-A572-44FC-8D4A-A176948BBDFF</title>
    <desc>Created with sketchtool.</desc>
    <g id="POR" stroke="none" stroke-width="1" fill="none" fill-rule="evenodd">
        <g id="StyleGuide" transform="translate(-180.000000, -4341.000000)">
            <g id="Header" transform="translate(120.000000, 4317.000000)">
                <g id="Logo_Green">
                    <g transform="translate(60.000000, 24.000000)">
                        <g id="Group">
                            <path d="M187.481537,7.01164915 L186.183287,9.69936838 L184.892069,7.01164915 L183.571037,7.01164915 L183.571037,12.0567017 L184.380194,12.0567017 L184.380194,7.78161404 L185.5426,10.2203508 L186.831006,10.2203508 L187.993412,7.78161404 L187.993412,12.0567017 L188.802568,12.0567017 L188.802568,7.01164915 L187.481537,7.01164915 Z M178.238256,7.81922808 L179.9716,7.81922808 L179.9716,12.0567017 L180.781038,12.0567017 L180.781038,7.81922808 L182.514663,7.81922808 L182.514663,7.01164915 L178.238256,7.01164915 L178.238256,7.81922808 Z M164.638403,31.8099649 L161.132622,31.8099649 L165.948747,21.7013334 L157.661997,7.06891244 L161.309528,7.06891244 L167.613184,18.202386 L172.925153,7.06891244 L176.431216,7.06891244 L164.638403,31.8099649 Z M152.527502,24.7407719 L155.714627,24.7407719 L155.714627,4.58736363e-14 L152.527502,4.58736363e-14 L152.527502,24.7407719 Z M140.336718,9.54301801 C136.830655,9.54301801 133.962187,12.4058951 133.962187,15.9048424 C133.962187,19.4040703 136.830655,22.2669474 140.336718,22.2669474 C143.842499,22.2669474 146.710968,19.4040703 146.710968,15.9048424 C146.710968,12.4058951 143.842499,9.54301801 140.336718,9.54301801 L140.336718,9.54301801 Z M130.775062,4.58736363e-14 L133.962187,4.58736363e-14 L133.962187,8.80084183 C135.662062,7.28084187 137.893218,6.36210506 140.336718,6.36210506 C145.61325,6.36210506 149.898375,10.6385962 149.898375,15.9048416 C149.898375,21.1713678 145.61325,25.4478588 140.336718,25.4478588 C137.893218,25.4478588 135.662062,24.529122 133.962187,23.0091221 L133.962187,24.7410518 L130.775062,24.7410518 L130.775062,4.58736363e-14 Z M118.203749,22.2669474 C121.709811,22.2669474 124.57828,19.4040703 124.57828,15.9048424 C124.57828,12.4058951 121.709811,9.54301801 118.203749,9.54301801 C114.697968,9.54301801 111.829499,12.4058951 111.829499,15.9048424 C111.829499,19.4040703 114.697968,22.2669474 118.203749,22.2669474 L118.203749,22.2669474 Z M124.578279,23.0091221 C122.878404,24.5291221 120.647248,25.4478588 118.203749,25.4478588 C112.927218,25.4478588 108.642374,21.1713679 108.642374,15.9048418 C108.642374,10.6385965 112.927218,6.36210552 118.203749,6.36210552 C120.647248,6.36210552 122.878404,7.28084231 124.578279,8.80084223 L124.578279,7.0689125 L127.765404,7.0689125 L127.765404,24.7410519 L124.578279,24.7410519 L124.578279,23.0091221 Z M99.2044692,14.8446315 L109.934719,24.7410525 L105.260063,24.7410525 L97.787813,17.8487016 L97.787813,24.7410525 L94.600688,24.7410525 L94.600688,4.58736363e-14 L97.787813,4.58736363e-14 L97.787813,12.123228 L104.232938,7.06891223 L109.403438,7.06891223 L99.2044692,14.8446315 Z M-1.59872116e-13,7.06891244 L3.18712511,7.06891244 L3.18712511,13.3249125 L9.41990658,7.06891244 L13.881938,7.06891244 L3.18712511,17.7782459 L3.18712511,24.741053 L-1.59872116e-13,24.741053 L-1.59872116e-13,7.06891244 Z M78.9482775,7.06891244 L82.1354026,7.06891244 L82.1354026,13.3249125 L88.368184,7.06891244 L92.8302155,7.06891244 L82.1354026,17.7782459 L82.1354026,24.741053 L78.9482775,24.741053 L78.9482775,7.06891244 Z M66.5805919,22.2669474 C70.0863731,22.2669474 72.9548417,19.4040703 72.9548417,15.9048424 C72.9548417,12.4058951 70.0863731,9.54301801 66.5805919,9.54301801 C63.0745295,9.54301801 60.2060609,12.4058951 60.2060609,15.9048424 C60.2060609,19.4040703 63.0745295,22.2669474 66.5805919,22.2669474 L66.5805919,22.2669474 Z M72.954841,23.0091221 C71.2549661,24.5291221 69.0240913,25.4478588 66.5805914,25.4478588 C61.3040604,25.4478588 57.0189357,21.1713679 57.0189357,15.9048418 C57.0189357,10.6385965 61.3040604,6.36210552 66.5805914,6.36210552 C69.0240913,6.36210552 71.2549661,7.28084231 72.954841,8.80084223 L72.954841,7.0689125 L76.1419659,7.0689125 L76.1419659,24.7410519 L72.954841,24.7410519 L72.954841,23.0091221 Z M16.1170313,13.6075793 L27.3785627,13.6075793 C26.7058127,11.2749478 24.5100939,9.54301801 21.9602814,9.54301801 C19.2690001,9.54301801 17.0024063,11.2395794 16.1170313,13.6075793 L16.1170313,13.6075793 Z M21.9602815,6.36210552 C26.8472816,6.36210552 30.8137504,10.3205614 30.8137504,15.1980349 L30.8137504,16.7887716 L15.8338127,16.7887716 C16.294219,19.8989469 18.737719,22.2669467 22.3143753,22.2669467 C24.1205628,22.2669467 25.7495628,21.5247713 26.9535941,20.3230872 L29.1847504,22.6203502 C27.4140004,24.35228 25.0059378,25.4478588 22.3143753,25.4478588 C16.5774377,25.4478588 12.5758127,21.1003503 12.5758127,15.7282804 C12.5758127,10.5678597 16.7900627,6.36210552 21.9602815,6.36210552 L21.9602815,6.36210552 Z" id="Fill-16" fill="#FFFFFF"></path>
                            <polygon id="Fill-17" fill="#65FF00" points="54.6022975 24.7411092 51.415735 24.7411092 51.415735 10.249881 45.5474536 10.249881 45.5474536 24.7411092 42.3369848 24.7411092 42.3369848 16.1637056 36.4937346 16.1637056 36.4937346 24.7411092 33.3063283 24.7411092 33.3063283 12.9827933 42.3369848 12.9827933 42.3369848 7.06896866 54.6022975 7.06896866"></polygon>
                        </g>
                    </g>
                </g>
            </g>
        </g>
    </g>
</svg>