<svg xmlns="http://www.w3.org/2000/svg" xmlns:xlink="http://www.w3.org/1999/xlink" width="1200" height="1200" viewBox="0 0 1200 1200"><g><g transform="translate(600 600) scale(0.69 0.69) rotate(0) translate(-600 -600)" style="fill:#FFFFFF"><svg fill="#FFFFFF" xmlns:x="http://ns.adobe.com/Extensibility/1.0/" xmlns:i="http://ns.adobe.com/AdobeIllustrator/10.0/" xmlns:graph="http://ns.adobe.com/Graphs/1.0/" xmlns="http://www.w3.org/2000/svg" xmlns:xlink="http://www.w3.org/1999/xlink" version="1.1" x="0px" y="0px" viewBox="0 0 64 64" enable-background="new 0 0 64 64" xml:space="preserve"><metadata><sfw xmlns="http://ns.adobe.com/SaveForWeb/1.0/"><slices></slices><sliceSourceBounds x="-8046" y="-276" width="16383" height="282" bottomLeftOrigin="true"></sliceSourceBounds></sfw></metadata><path d="M48.068,21.375h4.5c0.552,0,1-0.448,1-1v-4.5c0-0.552-0.448-1-1-1h-4.5c-0.552,0-1,0.448-1,1v4.5  C47.068,20.927,47.516,21.375,48.068,21.375z M49.068,16.875h2.5v2.5h-2.5V16.875z"></path><path d="M48.068,30.375h4.5c0.552,0,1-0.448,1-1v-4.5c0-0.552-0.448-1-1-1h-4.5c-0.552,0-1,0.448-1,1v4.5  C47.068,29.927,47.516,30.375,48.068,30.375z M49.068,25.875h2.5v2.5h-2.5V25.875z"></path><path d="M48.068,39.375h4.5c0.552,0,1-0.448,1-1v-4.5c0-0.552-0.448-1-1-1h-4.5c-0.552,0-1,0.448-1,1v4.5  C47.068,38.927,47.516,39.375,48.068,39.375z M49.068,34.875h2.5v2.5h-2.5V34.875z"></path><path d="M48.068,48.375h4.5c0.552,0,1-0.448,1-1v-4.5c0-0.552-0.448-1-1-1h-4.5c-0.552,0-1,0.448-1,1v4.5  C47.068,47.927,47.516,48.375,48.068,48.375z M49.068,43.875h2.5v2.5h-2.5V43.875z"></path><path d="M20.506,21.375h4.5c0.552,0,1-0.448,1-1v-4.5c0-0.552-0.448-1-1-1h-4.5c-0.552,0-1,0.448-1,1v4.5  C19.506,20.927,19.954,21.375,20.506,21.375z M21.506,16.875h2.5v2.5h-2.5V16.875z"></path><path d="M16.006,14.875h-4.5c-0.552,0-1,0.448-1,1v4.5c0,0.552,0.448,1,1,1h4.5c0.552,0,1-0.448,1-1v-4.5  C17.006,15.323,16.558,14.875,16.006,14.875z M15.006,19.375h-2.5v-2.5h2.5V19.375z"></path><path d="M29.506,30.375h4.5c0.552,0,1-0.448,1-1v-4.5c0-0.552-0.448-1-1-1h-4.5c-0.552,0-1,0.448-1,1v4.5  C28.506,29.927,28.954,30.375,29.506,30.375z M30.506,25.875h2.5v2.5h-2.5V25.875z"></path><path d="M20.506,30.375h4.5c0.552,0,1-0.448,1-1v-4.5c0-0.552-0.448-1-1-1h-4.5c-0.552,0-1,0.448-1,1v4.5  C19.506,29.927,19.954,30.375,20.506,30.375z M21.506,25.875h2.5v2.5h-2.5V25.875z"></path><path d="M16.006,23.875h-4.5c-0.552,0-1,0.448-1,1v4.5c0,0.552,0.448,1,1,1h4.5c0.552,0,1-0.448,1-1v-4.5  C17.006,24.323,16.558,23.875,16.006,23.875z M15.006,28.375h-2.5v-2.5h2.5V28.375z"></path><path d="M29.506,39.375h4.5c0.552,0,1-0.448,1-1v-4.5c0-0.552-0.448-1-1-1h-4.5c-0.552,0-1,0.448-1,1v4.5  C28.506,38.927,28.954,39.375,29.506,39.375z M30.506,34.875h2.5v2.5h-2.5V34.875z"></path><path d="M20.506,39.375h4.5c0.552,0,1-0.448,1-1v-4.5c0-0.552-0.448-1-1-1h-4.5c-0.552,0-1,0.448-1,1v4.5  C19.506,38.927,19.954,39.375,20.506,39.375z M21.506,34.875h2.5v2.5h-2.5V34.875z"></path><path d="M16.006,32.875h-4.5c-0.552,0-1,0.448-1,1v4.5c0,0.552,0.448,1,1,1h4.5c0.552,0,1-0.448,1-1v-4.5  C17.006,33.323,16.558,32.875,16.006,32.875z M15.006,37.375h-2.5v-2.5h2.5V37.375z"></path><path d="M29.506,48.375h4.5c0.552,0,1-0.448,1-1v-4.5c0-0.552-0.448-1-1-1h-4.5c-0.552,0-1,0.448-1,1v4.5  C28.506,47.927,28.954,48.375,29.506,48.375z M30.506,43.875h2.5v2.5h-2.5V43.875z"></path><path d="M20.506,48.375h4.5c0.552,0,1-0.448,1-1v-4.5c0-0.552-0.448-1-1-1h-4.5c-0.552,0-1,0.448-1,1v4.5  C19.506,47.927,19.954,48.375,20.506,48.375z M21.506,43.875h2.5v2.5h-2.5V43.875z"></path><path d="M16.006,41.875h-4.5c-0.552,0-1,0.448-1,1v4.5c0,0.552,0.448,1,1,1h4.5c0.552,0,1-0.448,1-1v-4.5  C17.006,42.323,16.558,41.875,16.006,41.875z M15.006,46.375h-2.5v-2.5h2.5V46.375z"></path><path d="M1.943,63h4.12h12.192h9h11.808h18.944h3.936c0.552,0,1-0.447,1-1s-0.448-1-1-1h-2.936V2c0-0.333-0.166-0.645-0.442-0.83  c-0.277-0.187-0.628-0.222-0.936-0.096L32.033,11.543L6.442,1.074c-0.31-0.126-0.66-0.091-0.936,0.096  C5.229,1.355,5.063,1.667,5.063,2v59h-3.12c-0.552,0-1,0.447-1,1S1.391,63,1.943,63z M19.256,61v-8.5h7V61H19.256z M34.681,12.622  l22.327-9.132V61H40.063V48.375h3.505c0.552,0,1-0.448,1-1v-4.5c0-0.552-0.448-1-1-1h-3.505v-2.5h3.505c0.552,0,1-0.448,1-1v-4.5  c0-0.552-0.448-1-1-1h-3.505v-2.5h3.505c0.552,0,1-0.448,1-1v-4.5c0-0.552-0.448-1-1-1h-3.505v-2.5h3.505c0.552,0,1-0.448,1-1v-4.5  c0-0.552-0.448-1-1-1h-3.736c-0.103-0.127-0.231-0.235-0.389-0.3L34.681,12.622z M40.068,46.375v-2.5h2.5v2.5H40.068z   M40.068,37.375v-2.5h2.5v2.5H40.068z M40.068,28.375v-2.5h2.5v2.5H40.068z M40.068,19.375v-2.5h2.5v2.5H40.068z M7.063,3.489  l31,12.681V61h-9.808v-9.5c0-0.553-0.448-1-1-1h-9c-0.552,0-1,0.447-1,1V61H7.063V3.489z"></path></svg></g></g></svg>