<svg width="16" height="16" viewBox="0 0 16 16" fill="none" xmlns="http://www.w3.org/2000/svg">
<path d="M6.93334 1.60001C3.99414 1.60001 1.60001 3.99414 1.60001 6.93334C1.60001 9.87254 3.99414 12.2667 6.93334 12.2667C8.21148 12.2667 9.38528 11.8128 10.3052 11.0594L13.4896 14.2438C13.5387 14.2949 13.5976 14.3358 13.6627 14.364C13.7279 14.3921 13.798 14.407 13.8689 14.4077C13.9399 14.4084 14.0103 14.395 14.076 14.3682C14.1417 14.3413 14.2013 14.3017 14.2515 14.2515C14.3017 14.2013 14.3413 14.1417 14.3682 14.076C14.395 14.0103 14.4084 13.9399 14.4077 13.8689C14.407 13.798 14.3921 13.7279 14.364 13.6627C14.3358 13.5976 14.2949 13.5387 14.2438 13.4896L11.0594 10.3052C11.8128 9.38528 12.2667 8.21148 12.2667 6.93334C12.2667 3.99414 9.87254 1.60001 6.93334 1.60001ZM6.93334 2.66667C9.29607 2.66667 11.2 4.57061 11.2 6.93334C11.2 9.29607 9.29607 11.2 6.93334 11.2C4.57061 11.2 2.66667 9.29607 2.66667 6.93334C2.66667 4.57061 4.57061 2.66667 6.93334 2.66667Z" fill="#F5FAF7"/>
</svg>
