<svg width="499" height="499" viewBox="0 0 499 499" fill="none" xmlns="http://www.w3.org/2000/svg">
<mask id="mask0" mask-type="alpha" maskUnits="userSpaceOnUse" x="0" y="0" width="499" height="499">
<circle cx="249.5" cy="249.5" r="140.511" stroke="black" stroke-width="74.9393"/>
</mask>
<g mask="url(#mask0)">
<circle cx="249.5" cy="249.5" r="215.4503" fill="#20272E" />
<path d="M284.48 512.129L512.133 214.519L248.749 13.0459L249.502 249.497L25.8218 197.429L-13.1296 284.476L284.48 512.129Z" fill="#006EFF"/>
{{ current_path|safe }}
</g>
<path d="M123.115 157.764V158.963H126.427V159.158C126.427 160.897 125.543 162.411 123.325 162.411C120.792 162.411 119.712 160.372 119.712 158.094C119.712 155.786 120.822 153.778 123.34 153.778C124.898 153.778 125.723 154.452 126.067 155.531H127.476C127.057 153.688 125.573 152.549 123.34 152.549C120.102 152.549 118.349 154.947 118.349 158.094C118.349 161.212 120.072 163.64 123.31 163.64C126.547 163.64 127.806 161.302 127.806 158.844V157.764H123.115ZM133.159 155.696C130.791 155.696 129.442 157.435 129.442 159.668C129.442 161.901 130.791 163.64 133.159 163.64C135.512 163.64 136.876 161.901 136.876 159.668C136.876 157.435 135.512 155.696 133.159 155.696ZM133.159 162.531C131.48 162.531 130.716 161.152 130.716 159.668C130.716 158.184 131.48 156.805 133.159 156.805C134.822 156.805 135.602 158.184 135.602 159.668C135.602 161.152 134.822 162.531 133.159 162.531ZM143.675 163.445H144.874V158.304C144.874 156.61 143.66 155.696 141.757 155.696C140.063 155.696 138.864 156.505 138.759 157.899H140.033C140.093 157.24 140.662 156.805 141.787 156.805C143.106 156.805 143.63 157.465 143.63 158.379V158.679H141.172C139.074 158.679 138.279 159.968 138.279 161.182C138.279 162.471 139.254 163.64 140.992 163.64C142.071 163.64 142.881 163.235 143.345 162.65H143.675V163.445ZM141.307 162.531C140.183 162.531 139.553 161.991 139.553 161.137C139.553 160.237 140.123 159.698 141.367 159.698H143.63V160.387C143.63 161.586 142.566 162.531 141.307 162.531ZM147.207 152.549V163.445H148.481V152.549H147.207ZM152.423 163.445V161.706H150.864V163.445H152.423ZM152.423 157.63V155.891H150.864V157.63H152.423ZM124.058 176.773C125.317 176.773 126.156 176.188 126.516 175.754H126.846C126.771 178.047 125.812 179.471 124.133 179.471C123.114 179.471 122.544 179.021 122.29 178.137H120.986C121.225 179.576 122.35 180.64 124.133 180.64C126.876 180.64 128.12 178.092 128.12 174.899C128.12 171.122 126.501 169.743 124.268 169.743C122.035 169.743 120.701 171.362 120.701 173.356C120.701 175.349 122.14 176.773 124.058 176.773ZM124.283 170.913C125.557 170.913 126.591 171.782 126.591 173.311C126.591 174.809 125.572 175.619 124.313 175.619C123.039 175.619 122.02 174.854 122.02 173.296C122.02 171.737 123.009 170.913 124.283 170.913ZM133.692 173.386C132.718 173.386 132.148 173.685 131.669 174.12H131.339L131.579 171.092H136.51V169.953H130.515L130.05 175.484H131.369C131.818 174.824 132.508 174.495 133.452 174.495C134.861 174.495 135.745 175.514 135.745 176.953C135.745 178.511 134.801 179.471 133.407 179.471C132.133 179.471 131.279 178.811 131.114 177.507H129.81C129.93 179.276 131.159 180.64 133.467 180.64C135.595 180.64 137.064 179.171 137.064 176.893C137.064 174.944 135.79 173.386 133.692 173.386ZM141.856 180.445L148.196 169.953H147.057L140.702 180.445H141.856ZM140.987 169.743C139.383 169.743 138.574 171.017 138.574 172.576C138.574 174.135 139.383 175.409 140.987 175.409C142.591 175.409 143.4 174.135 143.4 172.576C143.4 171.017 142.591 169.743 140.987 169.743ZM140.987 174.465C140.043 174.465 139.608 173.655 139.608 172.576C139.608 171.497 140.043 170.688 140.987 170.688C141.931 170.688 142.366 171.497 142.366 172.576C142.366 173.655 141.931 174.465 140.987 174.465ZM147.896 174.974C146.293 174.974 145.483 176.248 145.483 177.807C145.483 179.366 146.293 180.64 147.896 180.64C149.5 180.64 150.309 179.366 150.309 177.807C150.309 176.248 149.5 174.974 147.896 174.974ZM147.896 179.695C146.952 179.695 146.517 178.886 146.517 177.807C146.517 176.728 146.952 175.918 147.896 175.918C148.841 175.918 149.275 176.728 149.275 177.807C149.275 178.886 148.841 179.695 147.896 179.695Z" fill="#F5FAF7"/>
<path d="M232.96 382.781C232.615 384.025 231.641 384.79 230.142 384.79C227.654 384.79 226.56 382.751 226.56 380.473C226.56 378.21 227.669 376.157 230.157 376.157C231.641 376.157 232.435 376.786 232.84 377.925H234.263C233.829 376.082 232.33 374.928 230.157 374.928C226.979 374.928 225.196 377.296 225.196 380.473C225.196 383.65 226.949 386.019 230.142 386.019C232.495 386.019 233.949 384.685 234.383 382.781H232.96ZM236.238 378.27V383.066C236.238 384.879 237.258 386.019 239.116 386.019C240.135 386.019 240.975 385.599 241.394 385.014H241.724V385.824H242.953V378.27H241.679V382.362C241.679 383.725 240.765 384.879 239.431 384.879C238.157 384.879 237.512 384.19 237.512 382.796V378.27H236.238ZM249.72 378.27H249.151C248.057 378.27 247.337 378.704 246.963 379.169H246.633V378.27H245.404V385.824H246.678V382.047C246.678 380.383 247.592 379.469 249.091 379.469H249.72V378.27ZM255.707 378.27H255.137C254.043 378.27 253.324 378.704 252.949 379.169H252.619V378.27H251.39V385.824H252.664V382.047C252.664 380.383 253.578 379.469 255.077 379.469H255.707V378.27ZM263.926 381.597C263.881 379.739 262.802 378.075 260.554 378.075C258.261 378.075 256.912 379.649 256.912 381.972C256.912 384.295 258.231 386.019 260.584 386.019C262.457 386.019 263.552 385.029 263.791 383.74H262.502C262.278 384.46 261.648 384.909 260.584 384.909C259.025 384.909 258.216 383.83 258.171 382.032H263.926V381.597ZM260.524 379.184C261.798 379.184 262.532 380.008 262.607 380.968H258.246C258.411 380.008 259.16 379.184 260.524 379.184ZM272.624 385.824V381.028C272.624 379.214 271.605 378.075 269.747 378.075C268.727 378.075 267.888 378.495 267.468 379.079H267.139V378.27H265.91V385.824H267.184V381.732C267.184 380.398 268.083 379.214 269.432 379.214C270.706 379.214 271.35 379.904 271.35 381.297V385.824H272.624ZM276.709 378.27V375.992H275.435V378.27H274.131V379.379H275.435V383.71C275.435 385.314 276.394 385.824 278.028 385.824H278.612V384.685H278.058C277.038 384.685 276.709 384.295 276.709 383.531V379.379H278.612V378.27H276.709ZM282.191 385.824V384.085H280.632V385.824H282.191ZM282.191 380.008V378.27H280.632V380.008H282.191ZM244.728 397.128C245.267 396.889 246.047 396.094 246.047 394.925C246.047 393.261 244.608 392.122 242.569 392.122C240.531 392.122 239.092 393.261 239.092 394.925C239.092 396.124 239.857 396.889 240.411 397.128V397.458C239.707 397.698 238.778 398.582 238.778 399.961C238.778 401.7 240.261 403.019 242.569 403.019C244.878 403.019 246.361 401.7 246.361 399.961C246.361 398.567 245.417 397.698 244.728 397.458V397.128ZM242.569 393.261C243.768 393.261 244.758 393.861 244.758 394.985C244.758 396.109 243.768 396.724 242.569 396.724C241.37 396.724 240.381 396.109 240.381 394.985C240.381 393.861 241.37 393.261 242.569 393.261ZM242.569 401.85C241.026 401.85 240.081 401.055 240.081 399.841C240.081 398.597 241.026 397.863 242.569 397.863C244.113 397.863 245.057 398.597 245.057 399.841C245.057 401.055 244.113 401.85 242.569 401.85ZM251.837 392.122C249.619 392.122 247.985 393.801 247.985 397.578C247.985 401.355 249.619 403.019 251.837 403.019C254.055 403.019 255.704 401.355 255.704 397.578C255.704 393.801 254.055 392.122 251.837 392.122ZM251.837 401.85C250.098 401.85 249.304 400.171 249.304 397.578C249.304 394.97 250.098 393.291 251.837 393.291C253.59 393.291 254.385 394.97 254.385 397.578C254.385 400.171 253.59 401.85 251.837 401.85ZM260.53 402.824L266.87 392.332H265.731L259.376 402.824H260.53ZM259.661 392.122C258.057 392.122 257.247 393.396 257.247 394.955C257.247 396.514 258.057 397.788 259.661 397.788C261.264 397.788 262.074 396.514 262.074 394.955C262.074 393.396 261.264 392.122 259.661 392.122ZM259.661 396.844C258.716 396.844 258.282 396.034 258.282 394.955C258.282 393.876 258.716 393.067 259.661 393.067C260.605 393.067 261.039 393.876 261.039 394.955C261.039 396.034 260.605 396.844 259.661 396.844ZM266.57 397.353C264.966 397.353 264.157 398.627 264.157 400.186C264.157 401.745 264.966 403.019 266.57 403.019C268.174 403.019 268.983 401.745 268.983 400.186C268.983 398.627 268.174 397.353 266.57 397.353ZM266.57 402.074C265.626 402.074 265.191 401.265 265.191 400.186C265.191 399.107 265.626 398.297 266.57 398.297C267.514 398.297 267.949 399.107 267.949 400.186C267.949 401.265 267.514 402.074 266.57 402.074Z" fill="#F5FAF7"/>
<path d="M192.324 239.294C193.575 239.294 194.409 238.713 194.767 238.281H195.095C195.02 240.56 194.067 241.975 192.399 241.975C191.386 241.975 190.82 241.528 190.566 240.649H189.27C189.509 242.079 190.626 243.137 192.399 243.137C195.124 243.137 196.361 240.605 196.361 237.432C196.361 233.678 194.752 232.308 192.533 232.308C190.313 232.308 188.987 233.917 188.987 235.898C188.987 237.879 190.417 239.294 192.324 239.294ZM192.547 233.47C193.814 233.47 194.841 234.334 194.841 235.853C194.841 237.343 193.828 238.147 192.577 238.147C191.311 238.147 190.298 237.387 190.298 235.838C190.298 234.289 191.281 233.47 192.547 233.47ZM201.898 235.928C200.93 235.928 200.364 236.225 199.888 236.657H199.56L199.798 233.649H204.699V232.516H198.741L198.279 238.013H199.59C200.037 237.358 200.722 237.03 201.66 237.03C203.06 237.03 203.939 238.043 203.939 239.473C203.939 241.022 203.001 241.975 201.615 241.975C200.349 241.975 199.5 241.32 199.336 240.024H198.041C198.16 241.782 199.381 243.137 201.675 243.137C203.79 243.137 205.25 241.677 205.25 239.413C205.25 237.477 203.984 235.928 201.898 235.928ZM210.012 242.943L216.313 232.516H215.181L208.866 242.943H210.012ZM209.149 232.308C207.555 232.308 206.75 233.574 206.75 235.123C206.75 236.672 207.555 237.938 209.149 237.938C210.742 237.938 211.547 236.672 211.547 235.123C211.547 233.574 210.742 232.308 209.149 232.308ZM209.149 237C208.21 237 207.778 236.196 207.778 235.123C207.778 234.051 208.21 233.246 209.149 233.246C210.087 233.246 210.519 234.051 210.519 235.123C210.519 236.196 210.087 237 209.149 237ZM216.015 237.506C214.422 237.506 213.617 238.773 213.617 240.322C213.617 241.871 214.422 243.137 216.015 243.137C217.609 243.137 218.414 241.871 218.414 240.322C218.414 238.773 217.609 237.506 216.015 237.506ZM216.015 242.199C215.077 242.199 214.645 241.394 214.645 240.322C214.645 239.249 215.077 238.445 216.015 238.445C216.954 238.445 217.386 239.249 217.386 240.322C217.386 241.394 216.954 242.199 216.015 242.199ZM225.983 241.677V232.308H224.643V242.943H231.957V241.677H225.983ZM240.182 238.743C240.138 236.896 239.065 235.242 236.831 235.242C234.552 235.242 233.211 236.806 233.211 239.115C233.211 241.424 234.522 243.137 236.861 243.137C238.723 243.137 239.81 242.154 240.048 240.873H238.767C238.544 241.588 237.918 242.035 236.861 242.035C235.312 242.035 234.507 240.962 234.463 239.175H240.182V238.743ZM236.801 236.345C238.067 236.345 238.797 237.164 238.872 238.117H234.537C234.701 237.164 235.446 236.345 236.801 236.345ZM246.935 242.943H248.127V237.834C248.127 236.151 246.92 235.242 245.028 235.242C243.345 235.242 242.154 236.047 242.049 237.432H243.315C243.375 236.777 243.941 236.345 245.058 236.345C246.369 236.345 246.89 237 246.89 237.909V238.207H244.448C242.362 238.207 241.573 239.488 241.573 240.694C241.573 241.975 242.541 243.137 244.269 243.137C245.341 243.137 246.146 242.735 246.607 242.154H246.935V242.943ZM244.582 242.035C243.464 242.035 242.839 241.498 242.839 240.649C242.839 239.756 243.405 239.219 244.641 239.219H246.89V239.905C246.89 241.096 245.833 242.035 244.582 242.035ZM252.53 238.266C251.771 238.147 251.398 237.924 251.398 237.343C251.398 236.702 252.054 236.345 253.022 236.345C253.96 236.345 254.675 236.672 254.78 237.387H256.046C255.882 236.077 254.854 235.242 253.082 235.242C251.056 235.242 250.117 236.211 250.117 237.462C250.117 238.594 250.847 239.16 251.92 239.354L253.603 239.637C254.556 239.8 254.973 240.158 254.973 240.813C254.973 241.633 254.229 242.035 253.096 242.035C251.964 242.035 251.22 241.618 251.1 240.769H249.819C249.983 242.199 251.026 243.137 253.156 243.137C255.182 243.137 256.239 242.02 256.239 240.784C256.239 239.413 255.405 238.743 254.094 238.519L253.245 238.385L252.53 238.266ZM264.606 238.743C264.561 236.896 263.489 235.242 261.254 235.242C258.975 235.242 257.635 236.806 257.635 239.115C257.635 241.424 258.946 243.137 261.284 243.137C263.146 243.137 264.233 242.154 264.472 240.873H263.191C262.967 241.588 262.342 242.035 261.284 242.035C259.735 242.035 258.931 240.962 258.886 239.175H264.606V238.743ZM261.225 236.345C262.491 236.345 263.221 237.164 263.295 238.117H258.96C259.124 237.164 259.869 236.345 261.225 236.345ZM272.029 232.114V236.24H271.701C271.284 235.704 270.599 235.242 269.407 235.242C267.337 235.242 266.115 236.926 266.115 239.19C266.115 241.409 267.337 243.137 269.407 243.137C270.599 243.137 271.329 242.66 271.746 242.139H272.074V242.943H273.295V232.114H272.029ZM269.69 242.035C268.186 242.035 267.381 240.858 267.381 239.19C267.381 237.521 268.186 236.345 269.69 236.345C271.359 236.345 272.044 237.715 272.044 239.19C272.044 240.664 271.359 242.035 269.69 242.035ZM284.222 237.298V238.49H287.514V238.683C287.514 240.411 286.635 241.916 284.43 241.916C281.913 241.916 280.84 239.89 280.84 237.626C280.84 235.332 281.943 233.336 284.445 233.336C285.994 233.336 286.813 234.006 287.156 235.079H288.556C288.139 233.246 286.664 232.114 284.445 232.114C281.228 232.114 279.485 234.498 279.485 237.626C279.485 240.724 281.198 243.137 284.415 243.137C287.633 243.137 288.884 240.813 288.884 238.37V237.298H284.222ZM294.204 235.242C291.85 235.242 290.51 236.97 290.51 239.19C290.51 241.409 291.85 243.137 294.204 243.137C296.542 243.137 297.898 241.409 297.898 239.19C297.898 236.97 296.542 235.242 294.204 235.242ZM294.204 242.035C292.535 242.035 291.776 240.664 291.776 239.19C291.776 237.715 292.535 236.345 294.204 236.345C295.857 236.345 296.632 237.715 296.632 239.19C296.632 240.664 295.857 242.035 294.204 242.035ZM304.655 242.943H305.847V237.834C305.847 236.151 304.64 235.242 302.749 235.242C301.065 235.242 299.874 236.047 299.77 237.432H301.036C301.095 236.777 301.661 236.345 302.778 236.345C304.089 236.345 304.611 237 304.611 237.909V238.207H302.168C300.082 238.207 299.293 239.488 299.293 240.694C299.293 241.975 300.261 243.137 301.989 243.137C303.061 243.137 303.866 242.735 304.328 242.154H304.655V242.943ZM302.302 242.035C301.185 242.035 300.559 241.498 300.559 240.649C300.559 239.756 301.125 239.219 302.361 239.219H304.611V239.905C304.611 241.096 303.553 242.035 302.302 242.035ZM308.165 232.114V242.943H309.431V232.114H308.165ZM208.315 259.242C207.124 259.242 206.424 259.704 206.021 260.24H205.694V256.114H204.428V266.943H205.649V266.139H205.977C206.394 266.66 207.124 267.137 208.315 267.137C210.386 267.137 211.607 265.409 211.607 263.19C211.607 260.926 210.386 259.242 208.315 259.242ZM208.032 266.035C206.364 266.035 205.679 264.664 205.679 263.19C205.679 261.715 206.364 260.345 208.032 260.345C209.537 260.345 210.341 261.521 210.341 263.19C210.341 264.858 209.537 266.035 208.032 266.035ZM215.618 269.922L220.116 259.436H218.79L216.705 264.381H216.333L214.039 259.436H212.683L215.886 266.243L214.337 269.922H215.618ZM229.253 259.928C228.285 259.928 227.719 260.225 227.242 260.657H226.914L227.153 257.649H232.053V256.516H226.095L225.633 262.013H226.944C227.391 261.358 228.076 261.03 229.015 261.03C230.415 261.03 231.294 262.043 231.294 263.473C231.294 265.022 230.355 265.975 228.97 265.975C227.704 265.975 226.855 265.32 226.691 264.024H225.395C225.514 265.782 226.736 267.137 229.03 267.137C231.145 267.137 232.605 265.677 232.605 263.413C232.605 261.477 231.338 259.928 229.253 259.928ZM234.567 269.044L239.02 255.638H237.873L233.375 269.044H234.567ZM240.618 256.516V257.649H245.176V257.976L242.629 260.181V261.566C242.867 261.506 243.165 261.477 243.537 261.477C245.072 261.477 245.891 262.326 245.891 263.696C245.891 265.126 244.953 265.975 243.523 265.975C242.271 265.975 241.303 265.215 241.184 264.024H239.873C239.992 265.796 241.407 267.137 243.523 267.137C245.653 267.137 247.202 265.856 247.202 263.696C247.202 261.685 245.891 260.568 244.103 260.523V260.211L246.71 257.976V256.516H240.618ZM248.801 266.943H254.863V265.782H252.584V256.516H250.96L248.786 257.991V259.362L250.975 257.887H251.273V265.782H248.801V266.943ZM256.604 269.044L261.058 255.638H259.911L255.413 269.044H256.604ZM263.579 259.391C263.713 258.081 264.533 257.47 265.709 257.47C266.975 257.47 267.81 258.17 267.81 259.481C267.81 260.717 266.901 261.566 266.186 262.207C265.635 262.713 264.652 263.547 263.818 264.217L262.283 265.469V266.943H269.448V265.782H264.19V265.454L266.812 263.249C268.048 262.221 269.12 260.896 269.12 259.481C269.12 257.395 267.69 256.308 265.739 256.308C263.892 256.308 262.388 257.306 262.268 259.391H263.579ZM274.796 256.308C272.592 256.308 270.968 257.976 270.968 261.73C270.968 265.484 272.592 267.137 274.796 267.137C277.001 267.137 278.639 265.484 278.639 261.73C278.639 257.976 277.001 256.308 274.796 256.308ZM274.796 265.975C273.068 265.975 272.279 264.307 272.279 261.73C272.279 259.138 273.068 257.47 274.796 257.47C276.539 257.47 277.328 259.138 277.328 261.73C277.328 264.307 276.539 265.975 274.796 265.975ZM280.337 266.943H286.4V265.782H284.121V256.516H282.497L280.322 257.991V259.362L282.512 257.887H282.81V265.782H280.337V266.943ZM290.941 263.294C292.193 263.294 293.027 262.713 293.384 262.281H293.712C293.638 264.56 292.684 265.975 291.016 265.975C290.003 265.975 289.437 265.528 289.184 264.649H287.888C288.126 266.079 289.243 267.137 291.016 267.137C293.742 267.137 294.978 264.605 294.978 261.432C294.978 257.678 293.369 256.308 291.15 256.308C288.931 256.308 287.605 257.917 287.605 259.898C287.605 261.879 289.035 263.294 290.941 263.294ZM291.165 257.47C292.431 257.47 293.459 258.334 293.459 259.853C293.459 261.343 292.446 262.147 291.195 262.147C289.929 262.147 288.916 261.387 288.916 259.838C288.916 258.289 289.899 257.47 291.165 257.47Z" fill="#F5FAF7"/>
</svg>
