<svg width="499" height="499" viewBox="0 0 499 499" fill="none" xmlns="http://www.w3.org/2000/svg">
<defs>
  <style>
    @font-face {
        font-family: "formular";
        src: url("fonts/formular-regular.otf") format("opentype");
        font-weight: 400;
        font-style: normal;
    }
  </style>
</defs>
<style>
  /* <![CDATA[ */
  text,
  tspan {
    font-family: "formular";
    font-size: 15px;
  }
  /* ]]> */
</style>
<mask id="mask0" mask-type="alpha" maskUnits="userSpaceOnUse" x="0" y="0" width="499" height="499">
<circle cx="249.5" cy="249.5" r="140.511" stroke="black" stroke-width="74.9393"/>
</mask>
<g mask="url(#mask0)">
<circle cx="249.5" cy="249.5" r="215.4503" fill="{{ bg }}" />
{% for path in svg_paths %}
  {{ path|safe }}
{% endfor %}
</g>
<path d="M123.115 157.764V158.963H126.427V159.158C126.427 160.897 125.543 162.411 123.325 162.411C120.792 162.411 119.712 160.372 119.712 158.094C119.712 155.786 120.822 153.778 123.34 153.778C124.898 153.778 125.723 154.452 126.067 155.531H127.476C127.057 153.688 125.573 152.549 123.34 152.549C120.102 152.549 118.349 154.947 118.349 158.094C118.349 161.212 120.072 163.64 123.31 163.64C126.547 163.64 127.806 161.302 127.806 158.844V157.764H123.115ZM133.159 155.696C130.791 155.696 129.442 157.435 129.442 159.668C129.442 161.901 130.791 163.64 133.159 163.64C135.512 163.64 136.876 161.901 136.876 159.668C136.876 157.435 135.512 155.696 133.159 155.696ZM133.159 162.531C131.48 162.531 130.716 161.152 130.716 159.668C130.716 158.184 131.48 156.805 133.159 156.805C134.822 156.805 135.602 158.184 135.602 159.668C135.602 161.152 134.822 162.531 133.159 162.531ZM143.675 163.445H144.874V158.304C144.874 156.61 143.66 155.696 141.757 155.696C140.063 155.696 138.864 156.505 138.759 157.899H140.033C140.093 157.24 140.662 156.805 141.787 156.805C143.106 156.805 143.63 157.465 143.63 158.379V158.679H141.172C139.074 158.679 138.279 159.968 138.279 161.182C138.279 162.471 139.254 163.64 140.992 163.64C142.071 163.64 142.881 163.235 143.345 162.65H143.675V163.445ZM141.307 162.531C140.183 162.531 139.553 161.991 139.553 161.137C139.553 160.237 140.123 159.698 141.367 159.698H143.63V160.387C143.63 161.586 142.566 162.531 141.307 162.531ZM147.207 152.549V163.445H148.481V152.549H147.207ZM152.423 163.445V161.706H150.864V163.445H152.423ZM152.423 157.63V155.891H150.864V157.63H152.423ZM124.058 176.773C125.317 176.773 126.156 176.188 126.516 175.754H126.846C126.771 178.047 125.812 179.471 124.133 179.471C123.114 179.471 122.544 179.021 122.29 178.137H120.986C121.225 179.576 122.35 180.64 124.133 180.64C126.876 180.64 128.12 178.092 128.12 174.899C128.12 171.122 126.501 169.743 124.268 169.743C122.035 169.743 120.701 171.362 120.701 173.356C120.701 175.349 122.14 176.773 124.058 176.773ZM124.283 170.913C125.557 170.913 126.591 171.782 126.591 173.311C126.591 174.809 125.572 175.619 124.313 175.619C123.039 175.619 122.02 174.854 122.02 173.296C122.02 171.737 123.009 170.913 124.283 170.913ZM133.692 173.386C132.718 173.386 132.148 173.685 131.669 174.12H131.339L131.579 171.092H136.51V169.953H130.515L130.05 175.484H131.369C131.818 174.824 132.508 174.495 133.452 174.495C134.861 174.495 135.745 175.514 135.745 176.953C135.745 178.511 134.801 179.471 133.407 179.471C132.133 179.471 131.279 178.811 131.114 177.507H129.81C129.93 179.276 131.159 180.64 133.467 180.64C135.595 180.64 137.064 179.171 137.064 176.893C137.064 174.944 135.79 173.386 133.692 173.386ZM141.856 180.445L148.196 169.953H147.057L140.702 180.445H141.856ZM140.987 169.743C139.383 169.743 138.574 171.017 138.574 172.576C138.574 174.135 139.383 175.409 140.987 175.409C142.591 175.409 143.4 174.135 143.4 172.576C143.4 171.017 142.591 169.743 140.987 169.743ZM140.987 174.465C140.043 174.465 139.608 173.655 139.608 172.576C139.608 171.497 140.043 170.688 140.987 170.688C141.931 170.688 142.366 171.497 142.366 172.576C142.366 173.655 141.931 174.465 140.987 174.465ZM147.896 174.974C146.293 174.974 145.483 176.248 145.483 177.807C145.483 179.366 146.293 180.64 147.896 180.64C149.5 180.64 150.309 179.366 150.309 177.807C150.309 176.248 149.5 174.974 147.896 174.974ZM147.896 179.695C146.952 179.695 146.517 178.886 146.517 177.807C146.517 176.728 146.952 175.918 147.896 175.918C148.841 175.918 149.275 176.728 149.275 177.807C149.275 178.886 148.841 179.695 147.896 179.695Z" fill="#F5FAF7"/>
<path d="M232.96 382.781C232.615 384.025 231.641 384.79 230.142 384.79C227.654 384.79 226.56 382.751 226.56 380.473C226.56 378.21 227.669 376.157 230.157 376.157C231.641 376.157 232.435 376.786 232.84 377.925H234.263C233.829 376.082 232.33 374.928 230.157 374.928C226.979 374.928 225.196 377.296 225.196 380.473C225.196 383.65 226.949 386.019 230.142 386.019C232.495 386.019 233.949 384.685 234.383 382.781H232.96ZM236.238 378.27V383.066C236.238 384.879 237.258 386.019 239.116 386.019C240.135 386.019 240.975 385.599 241.394 385.014H241.724V385.824H242.953V378.27H241.679V382.362C241.679 383.725 240.765 384.879 239.431 384.879C238.157 384.879 237.512 384.19 237.512 382.796V378.27H236.238ZM249.72 378.27H249.151C248.057 378.27 247.337 378.704 246.963 379.169H246.633V378.27H245.404V385.824H246.678V382.047C246.678 380.383 247.592 379.469 249.091 379.469H249.72V378.27ZM255.707 378.27H255.137C254.043 378.27 253.324 378.704 252.949 379.169H252.619V378.27H251.39V385.824H252.664V382.047C252.664 380.383 253.578 379.469 255.077 379.469H255.707V378.27ZM263.926 381.597C263.881 379.739 262.802 378.075 260.554 378.075C258.261 378.075 256.912 379.649 256.912 381.972C256.912 384.295 258.231 386.019 260.584 386.019C262.457 386.019 263.552 385.029 263.791 383.74H262.502C262.278 384.46 261.648 384.909 260.584 384.909C259.025 384.909 258.216 383.83 258.171 382.032H263.926V381.597ZM260.524 379.184C261.798 379.184 262.532 380.008 262.607 380.968H258.246C258.411 380.008 259.16 379.184 260.524 379.184ZM272.624 385.824V381.028C272.624 379.214 271.605 378.075 269.747 378.075C268.727 378.075 267.888 378.495 267.468 379.079H267.139V378.27H265.91V385.824H267.184V381.732C267.184 380.398 268.083 379.214 269.432 379.214C270.706 379.214 271.35 379.904 271.35 381.297V385.824H272.624ZM276.709 378.27V375.992H275.435V378.27H274.131V379.379H275.435V383.71C275.435 385.314 276.394 385.824 278.028 385.824H278.612V384.685H278.058C277.038 384.685 276.709 384.295 276.709 383.531V379.379H278.612V378.27H276.709ZM282.191 385.824V384.085H280.632V385.824H282.191ZM282.191 380.008V378.27H280.632V380.008H282.191ZM244.728 397.128C245.267 396.889 246.047 396.094 246.047 394.925C246.047 393.261 244.608 392.122 242.569 392.122C240.531 392.122 239.092 393.261 239.092 394.925C239.092 396.124 239.857 396.889 240.411 397.128V397.458C239.707 397.698 238.778 398.582 238.778 399.961C238.778 401.7 240.261 403.019 242.569 403.019C244.878 403.019 246.361 401.7 246.361 399.961C246.361 398.567 245.417 397.698 244.728 397.458V397.128ZM242.569 393.261C243.768 393.261 244.758 393.861 244.758 394.985C244.758 396.109 243.768 396.724 242.569 396.724C241.37 396.724 240.381 396.109 240.381 394.985C240.381 393.861 241.37 393.261 242.569 393.261ZM242.569 401.85C241.026 401.85 240.081 401.055 240.081 399.841C240.081 398.597 241.026 397.863 242.569 397.863C244.113 397.863 245.057 398.597 245.057 399.841C245.057 401.055 244.113 401.85 242.569 401.85ZM251.837 392.122C249.619 392.122 247.985 393.801 247.985 397.578C247.985 401.355 249.619 403.019 251.837 403.019C254.055 403.019 255.704 401.355 255.704 397.578C255.704 393.801 254.055 392.122 251.837 392.122ZM251.837 401.85C250.098 401.85 249.304 400.171 249.304 397.578C249.304 394.97 250.098 393.291 251.837 393.291C253.59 393.291 254.385 394.97 254.385 397.578C254.385 400.171 253.59 401.85 251.837 401.85ZM260.53 402.824L266.87 392.332H265.731L259.376 402.824H260.53ZM259.661 392.122C258.057 392.122 257.247 393.396 257.247 394.955C257.247 396.514 258.057 397.788 259.661 397.788C261.264 397.788 262.074 396.514 262.074 394.955C262.074 393.396 261.264 392.122 259.661 392.122ZM259.661 396.844C258.716 396.844 258.282 396.034 258.282 394.955C258.282 393.876 258.716 393.067 259.661 393.067C260.605 393.067 261.039 393.876 261.039 394.955C261.039 396.034 260.605 396.844 259.661 396.844ZM266.57 397.353C264.966 397.353 264.157 398.627 264.157 400.186C264.157 401.745 264.966 403.019 266.57 403.019C268.174 403.019 268.983 401.745 268.983 400.186C268.983 398.627 268.174 397.353 266.57 397.353ZM266.57 402.074C265.626 402.074 265.191 401.265 265.191 400.186C265.191 399.107 265.626 398.297 266.57 398.297C267.514 398.297 267.949 399.107 267.949 400.186C267.949 401.265 267.514 402.074 266.57 402.074Z" fill="#F5FAF7"/>
{{ title|safe }}
</svg>
